<svg xmlns="http://www.w3.org/2000/svg" version="1.1" xmlns:xlink="http://www.w3.org/1999/xlink" xmlns:svgjs="http://svgjs.com/svgjs" width="940" height="710" preserveAspectRatio="none" viewBox="0 0 940 710"><g mask="url(&quot;#SvgjsMask1084&quot;)" fill="none"><rect width="940" height="710" x="0" y="0" fill="rgba(128, 161, 193, 1)"></rect><path d="M0,300.748C56.653,299.197,110.686,276.854,156.357,243.296C200.239,211.053,239.38,168.146,252.421,115.277C264.658,65.669,235.843,17.527,224.325,-32.253C213.923,-77.211,214.271,-124.974,188.048,-162.945C160.178,-203.302,118.564,-231.036,73.568,-250.55C24.056,-272.022,-30.745,-296.238,-82.267,-280.174C-133.645,-264.155,-162.774,-211.794,-193.171,-167.384C-220.663,-127.219,-242.16,-83.989,-249.485,-35.87C-256.853,12.536,-249.228,60.467,-234.985,107.314C-218.944,160.073,-204.532,216.964,-161.957,252.01C-117.53,288.581,-57.521,302.323,0,300.748" fill="#507ba4"></path><path d="M940 983.565C997.551 980.616 1055.34 993.927 1109.054 973.054 1170.202 949.293 1239.317 918.727 1263.6399999999999 857.8009999999999 1287.915 796.996 1255.7069999999999 728.727 1230.761 668.195 1210.1399999999999 618.157 1172.909 579.444 1133.599 542.246 1097.763 508.33500000000004 1057.655 482.58000000000004 1012.829 461.96799999999996 961.122 438.193 909.708 411.036 852.836 413.147 786.7570000000001 415.599 716.423 429.182 668.5029999999999 474.746 619.1600000000001 521.663 594.403 592.047 593.091 660.122 591.847 724.691 632.509 779.479 661.518 837.178 689.381 892.596 704.527 962.109 759.432 990.97 813.856 1019.578 878.596 986.712 940 983.565" fill="#b4c7da"></path></g><defs><mask id="SvgjsMask1084"><rect width="940" height="710" fill="#ffffff"></rect></mask></defs></svg>